<svg t="1673405963573" class="icon" viewBox="0 0 1024 1024" p-id="10823" xmlns="http://www.w3.org/2000/svg">
<path fill="currentColor" d="M492.178 146.505c-9.508-0.804-24.576 0.22-33.645 8.997 0 0-223.013 201.289-232.448 210.212h-74.972c-41.984 0-77.97 32.768-77.97 73.143v146.286c0 40.302 36.06 73.07 77.97 73.07h74.972c9.508 9.07 232.52 210.212 232.52 210.212 9.875 9.509 24.138 9.801 33.646 8.997 19.237-1.756 36.718-19.383 36.718-33.646 0.146-1.61 0.293-661.943 0-663.552 0-13.897-17.554-31.963-36.79-33.646z m189.88 174.08a45.641 45.641 0 0 0-62.83 0 41.691 41.691 0 0 0 0 60.416 180.59 180.59 0 0 1 0 261.925 41.618 41.618 0 0 0 0 60.416 45.13 45.13 0 0 0 31.45 12.58c11.338 0 22.675-4.169 31.38-12.507a263.9 263.9 0 0 0 0-382.83z m151.77-80.676a45.641 45.641 0 0 0-62.756 0 41.691 41.691 0 0 0 0 60.416 291.694 291.694 0 0 1 0 423.131 41.691 41.691 0 0 0 0 60.416 45.13 45.13 0 0 0 31.378 12.507c11.337 0 22.675-4.169 31.379-12.434a375.077 375.077 0 0 0 117.028-272.091A375.077 375.077 0 0 0 833.83 239.909z" p-id="10824"></path>
</svg>