<svg t="1673405974603" class="icon" viewBox="0 0 1024 1024" p-id="11292" xmlns="http://www.w3.org/2000/svg">
<path fill="currentColor" d="M830.537 512L936.96 388.023a62.098 62.098 0 0 0 0-78.336 42.935 42.935 0 0 0-67.291 0l-106.277 124.05-106.496-124.05a42.935 42.935 0 0 0-67.218 0 62.025 62.025 0 0 0 0 78.263L696.1 512 589.678 636.05a62.025 62.025 0 0 0 0 78.336 42.935 42.935 0 0 0 67.291 0l106.35-124.05 106.423 124.05a42.935 42.935 0 0 0 67.218 0 62.098 62.098 0 0 0 0-78.263L830.537 512zM492.178 877.495c-9.508 0.804-24.576-0.22-33.645-8.997 0 0-223.013-201.289-232.448-210.212h-74.972c-41.984 0-77.97-32.768-77.97-73.143V438.857c0-40.302 36.06-73.07 77.97-73.07h74.972c9.508-9.07 232.52-210.212 232.52-210.212 9.875-9.509 24.138-9.801 33.646-8.997 19.237 1.756 36.718 19.383 36.718 33.646 0.146 1.61 0.293 661.943 0 663.552 0 13.897-17.554 31.963-36.79 33.646z" p-id="11293"></path>
</svg>